Coordinates
version=1
nRows=21
nColumns=33
inDegrees=yes

Units are S.I. units (second, meters, Newtons, ...)
Angles are in degrees.

endheader
time	ground_thorax_rot_x	ground_thorax_rot_y	ground_thorax_rot_z	ground_thorax_tx	ground_thorax_ty	ground_thorax_tz	clav_prot_r	clav_elev_r	scapula_abduction_r	scapula_elevation_r	scapula_upward_rot_r	scapula_winging_r	shoulder_elv_r	plane_of_elev_r	axial_rot_r	elbow_flexion_r	pro_sup_r	wrist_flex_r	wrist_dev_r	clav_prot_l	clav_elev_l	scapula_abduction_l	scapula_elevation_l	scapula_upward_rot_l	scapula_winging_l	shoulder_elv_l	plane_of_elev_l	axial_rot_l	elbow_flexion_l	pro_sup_l	wrist_flex_l	wrist_dev_l
      5.71000000	    -39.50326080	     -7.94431944	     15.20161261	   -167.32240067	    813.02164869	      1.84288578	     -3.78782165	    -45.00000000	     45.00000000	    -45.00000000	     19.21298517	  -3351.41607617	  -2092.72129764	     22.99075556	   -179.99999979	   2524.53321993	    234.49792837	     18.94356422	     12.31417655	     17.70240637	     40.56276277	    -41.85803064	    -45.00000000	    -38.55554662	   1882.18738607	  -3528.66910746	     26.59414603	    -23.98764196	    731.05686642	   -338.60543234	      5.44524091	    -20.17222995
      5.72000000	    -39.46356789	     -8.06058631	     15.22066009	   -169.46022923	    814.31969337	      1.81430958	     -3.63041392	    -45.00000000	     45.00000000	    -45.00000000	     18.91842201	  -3351.39824290	  -2092.52133850	     23.05692009	   -179.99999979	   2524.51491196	    234.11967095	     18.99981495	     12.36522245	     17.62513800	     40.45728349	    -41.69320309	    -45.00000000	    -38.83239797	   1882.35832487	  -3528.49299435	     26.57963353	    -24.00146309	    731.18873949	   -338.94609971	      5.38665300	    -20.19658768
      5.73000000	    -39.40584505	     -8.10116489	     15.23463382	   -171.56523158	    815.63034900	      1.79751887	     -3.48734706	    -45.00000000	     45.00000000	    -45.00000000	     18.57601329	  -3351.35109459	  -2092.34085972	     23.13961711	   -179.99999979	   2524.39390047	    233.72939426	     19.11114162	     12.40795334	     17.50683424	     40.37233988	    -41.57474076	    -45.00000000	    -38.94864975	   1882.50562088	  -3528.34144939	     26.57418998	    -23.94068290	    731.16647756	   -339.28610554	      5.37449764	    -20.20657816
      5.74000000	    -39.38445250	     -8.11370096	     15.21957904	   -173.63927778	    816.94869055	      1.78903368	     -3.33547190	    -45.00000000	     45.00000000	    -45.00000000	     18.43707899	  -3351.36501364	  -2092.09416517	     23.18501344	   -179.99999979	   2524.34560558	    233.34356103	     19.17317975	     12.43817760	     17.36156477	     40.35133398	    -41.47106844	    -45.00000000	    -38.96492377	   1882.64877519	  -3528.23807486	     26.47957469	    -24.11776008	    731.17528927	   -339.62396961	      5.35936437	    -20.21549452
      5.75000000	    -39.35981098	     -8.11130092	     15.16377253	   -175.67987294	    818.26809628	      1.78601093	     -3.22194657	    -45.00000000	     45.00000000	    -45.00000000	     18.08024773	  -3351.29569624	  -2091.92327145	     23.25387252	   -179.99999979	   2524.23364678	    232.95911187	     19.28176734	     12.47603714	     17.25620060	     40.27312580	    -41.36444320	    -45.00000000	    -39.00091181	   1882.82383091	  -3528.15259922	     26.43523165	    -24.16705922	    731.20516692	   -339.99776212	      5.33566138	    -20.22783999
      5.76000000	    -39.28169246	     -8.28542379	     15.31425310	   -177.69236842	    819.57258403	      1.78218532	     -2.99801619	    -45.00000000	     44.95314847	    -45.00000000	     17.57714379	  -3351.25677675	  -2091.72778390	     23.33596597	   -179.99999979	   2524.20546614	    232.52933529	     19.31700567	     12.52439521	     17.30417323	     39.86133089	    -41.24006393	    -45.00000000	    -39.69776862	   1883.05735811	  -3527.89401141	     26.63249615	    -24.16023334	    731.26904603	   -340.52071678	      5.21978038	    -20.18914377
      5.77000000	    -39.26835730	     -8.23496893	     15.34231521	   -179.66959527	    820.85573670	      1.77637367	     -3.04807567	    -45.00000000	     44.73243188	    -45.00000000	     17.13071061	  -3351.09989605	  -2091.50909388	     23.31130362	   -179.99999979	   2524.11307910	    232.15106959	     19.38131997	     12.52245238	     17.16152677	     39.98817948	    -41.19511196	    -45.00000000	    -39.61672836	   1883.13277568	  -3527.84955252	     26.45228209	    -24.33229986	    731.29823956	   -340.92720608	      5.32274105	    -20.24288526
      5.78000000	    -39.24953533	     -8.23081890	     15.34654459	   -181.62171784	    822.12196042	      1.76768432	     -2.94702674	    -45.00000000	     44.49795768	    -45.00000000	     16.61037214	  -3350.94067798	  -2091.35938103	     23.36070827	   -179.99999979	   2524.04078478	    231.79662745	     19.47010407	     12.55808360	     17.09285594	     39.87490693	    -41.13219620	    -45.00000000	    -39.80310581	   1883.27447726	  -3527.71933132	     26.43443323	    -24.36978315	    731.30870286	   -341.39209287	      5.29043396	    -20.23791282
      5.79000000	    -39.15215551	     -8.35392813	     15.52501290	   -183.54631841	    823.36713411	      1.75638005	     -2.52499286	    -45.00000000	     44.27805618	    -45.00000000	     15.72311775	  -3350.82338190	  -2091.22844349	     23.52743852	   -179.99999979	   2523.93282728	    231.28383545	     19.58989561	     12.66224261	     17.14331293	     39.16991626	    -41.20965461	    -45.00000000	    -40.95138624	   1883.39866097	  -3527.46482250	     26.69822472	    -23.72671997	    731.15069853	   -342.31067459	      5.09989812	    -20.10940481
      5.80000000	    -39.20489981	     -8.24869129	     15.45556610	   -185.44007625	    824.58675262	      1.74284398	     -2.79567364	    -45.00000000	     44.11200648	    -45.00000000	     15.59812862	  -3350.68962797	  -2090.98478987	     23.43022055	   -179.99999979	   2523.92306705	    231.01292465	     19.58812250	     12.61283931	     16.94611692	     39.65790970	    -41.08587764	    -45.00000000	    -40.26104307	   1883.51558690	  -3527.45756693	     26.35643475	    -24.51917074	    731.18841077	   -342.61130611	      5.37458472	    -20.22103461
      5.81000000	    -39.21785803	     -8.16370685	     15.35206281	   -187.30487866	    825.77960476	      1.72841168	     -2.74700110	    -45.00000000	     43.92583630	    -45.00000000	     15.26951313	  -3350.55743674	  -2090.83736647	     23.44826216	   -179.99999979	   2523.85071881	    230.77431142	     19.67755078	     12.62270440	     16.83493468	     39.73577421	    -40.99889873	    -45.00000000	    -40.09503868	   1883.66300994	  -3527.41419888	     26.24089493	    -24.85330801	    731.24775408	   -343.02404694	      5.33540450	    -20.22521649
      5.82000000	    -39.16315209	     -8.21731097	     15.39165384	   -189.13780104	    826.94194726	      1.71435770	     -2.62025722	    -45.00000000	     43.72479941	    -45.00000000	     14.91191359	  -3350.48738744	  -2090.67533617	     23.53769469	   -179.99999979	   2523.81937019	    230.55190438	     19.73767872	     12.64728693	     16.82486062	     39.56956689	    -40.90031285	    -45.00000000	    -40.43281140	   1883.82473963	  -3527.32781289	     26.29996823	    -25.00939927	    731.27329584	   -343.51520216	      5.25529826	    -20.19901122
      5.83000000	    -39.18880775	     -8.12781895	     15.31317926	   -190.93548107	    828.06986005	      1.70221608	     -2.63483155	    -45.00000000	     43.56270399	    -45.00000000	     14.50180152	  -3350.34484590	  -2090.52519873	     23.51850129	   -179.99999979	   2523.74229036	    230.36284805	     19.82109243	     12.64260203	     16.71002816	     39.62575673	    -40.87514642	    -45.00000000	    -40.34559125	   1883.91012473	  -3527.23430449	     26.16022109	    -25.15628681	    731.24790368	   -343.92852201	      5.30592221	    -20.21598665
      5.84000000	    -39.12857739	     -8.24815635	     15.42882816	   -192.69996685	    829.16225013	      1.69330389	     -2.40313222	    -45.00000000	     43.36548311	    -45.00000000	     14.07662061	  -3350.30817504	  -2090.35888718	     23.65539008	   -179.99999979	   2523.78369626	    230.18969830	     19.86978432	     12.69157793	     16.76808722	     39.25333404	    -40.77207965	    -45.00000000	    -40.96556691	   1884.12628752	  -3527.12179523	     26.38275743	    -25.21375276	    731.22872740	   -344.49025671	      5.13641162	    -20.14853775
      5.85000000	    -39.16440602	     -8.06100846	     15.25386073	   -194.42504040	    830.21323952	      1.68894739	     -2.55328195	    -45.00000000	     43.22785976	    -45.00000000	     13.75738291	  -3350.12788866	  -2090.22888285	     23.55954016	   -179.99999979	   2523.61256897	    230.04153837	     19.96009523	     12.62607457	     16.53932670	     39.56868943	    -40.78373466	    -45.00000000	    -40.45928207	   1884.08798199	  -3527.11218987	     25.98680554	    -25.57156323	    731.10209335	   -344.77855439	      5.33986000	    -20.20223393
      5.86000000	    -39.11011973	     -8.19804551	     15.39438051	   -196.11277443	    831.22179594	      1.69022606	     -2.30016749	    -45.00000000	     43.04857683	    -45.00000000	     13.30854800	  -3350.11015114	  -2090.06875310	     23.70427347	   -179.99999979	   2523.67144859	    229.93857184	     20.00297903	     12.66673111	     16.63564274	     39.18938463	    -40.66791727	    -45.00000000	    -41.18543673	   1884.35065864	  -3526.95229646	     26.25331102	    -25.59053900	    731.24320558	   -345.28098337	      5.09282393	    -20.15807736
      5.87000000	    -39.13785315	     -8.07259816	     15.28618142	   -197.75925791	    832.18436173	      1.69789640	     -2.39187481	    -45.00000000	     42.92706361	    -45.00000000	     12.97669615	  -3349.98964371	  -2089.92095564	     23.63924996	   -179.99999979	   2523.54778132	    229.84061005	     20.08006976	     12.60787279	     16.45727321	     39.38732005	    -40.65218994	    -45.00000000	    -40.89494992	   1884.35955336	  -3526.90488093	     25.97432446	    -25.89621665	    731.22131507	   -345.54236840	      5.20346475	    -20.21151508
      5.88000000	    -39.06248357	     -8.20869979	     15.42101148	   -199.36724124	    833.10159815	      1.71231453	     -2.09145799	    -45.00000000	     42.70662160	    -45.00000000	     12.46237453	  -3349.96078006	  -2089.81148802	     23.82149029	   -179.99999979	   2523.62098222	    229.78754244	     20.14622258	     12.66305767	     16.58054385	     38.88409985	    -40.55402794	    -45.00000000	    -41.69167493	   1884.58594567	  -3526.83212078	     26.32134766	    -25.77706189	    731.14460717	   -345.99917466	      4.90857663	    -20.11066285
      5.89000000	    -39.09914390	     -8.12799074	     15.33554196	   -200.93464770	    833.97234067	      1.73330633	     -2.21844159	    -45.00000000	     42.59854621	    -45.00000000	     12.21532471	  -3349.86433974	  -2089.66285668	     23.73479974	   -179.99999979	   2523.53834813	    229.73073213	     20.19622546	     12.58166001	     16.40714827	     39.14736406	    -40.48875476	    -45.00000000	    -41.38218982	   1884.62857447	  -3526.76715278	     26.02459565	    -26.20925520	    731.26656541	   -346.18403904	      5.05555019	    -20.20542981
      5.90000000	    -39.10409360	     -8.05033617	     15.27260898	   -202.46409845	    834.79815630	      1.76034548	     -2.16634644	    -45.00000000	     42.45164962	    -45.00000000	     11.86003255	  -3349.78517435	  -2089.55629327	     23.76068060	   -179.99999979	   2523.47076480	    229.69980129	     20.28133781	     12.54582513	     16.34060504	     39.14609741	    -40.42045850	    -45.00000000	    -41.38553295	   1884.71516221	  -3526.69504500	     25.96166205	    -26.40038435	    731.31552888	   -346.39547097	      4.96651103	    -20.21116372
      5.91000000	    -39.11056691	     -8.01861537	     15.25103160	   -203.95759255	    835.58044201	      1.79257436	     -2.12435693	    -45.00000000	     42.31606470	    -45.00000000	     11.53833516	  -3349.74287373	  -2089.41674585	     23.77603839	   -179.99999979	   2523.42323560	    229.68592002	     20.34973070	     12.50298168	     16.26799528	     39.13236788	    -40.35668122	    -45.00000000	    -41.43421187	   1884.81095465	  -3526.64297142	     25.89927844	    -26.62907261	    731.36207132	   -346.56621597	      4.89827061	    -20.22113180
